<?xml version="1.0" encoding="utf-8"?>
<!-- Generator: Adobe Illustrator 25.0.1, SVG Export Plug-In . SVG Version: 6.00 Build 0)  -->
<svg version="1.1"
	 id="svg13864" inkscape:version="0.47pre3 r22311" sodipodi:docname="New document 50" xmlns:cc="http://creativecommons.org/ns#" xmlns:dc="http://purl.org/dc/elements/1.1/" xmlns:inkscape="http://www.inkscape.org/namespaces/inkscape" xmlns:ns1="http://sozi.baierouge.fr" xmlns:rdf="http://www.w3.org/1999/02/22-rdf-syntax-ns#" xmlns:sodipodi="http://sodipodi.sourceforge.net/DTD/sodipodi-0.dtd" xmlns:svg="http://www.w3.org/2000/svg"
	 xmlns="http://www.w3.org/2000/svg" xmlns:xlink="http://www.w3.org/1999/xlink" x="0px" y="0px" viewBox="0 0 286.9 286.9"
	 style="enable-background:new 0 0 286.9 286.9;" xml:space="preserve">
<style type="text/css">
	.st0{fill:#FFFFFF;}
</style>
<circle class="st0" cx="143.4" cy="143.4" r="143.4"/>
<sodipodi:namedview  bordercolor="#666666" borderopacity="1.0" id="base" inkscape:current-layer="layer1" inkscape:cx="413.34236" inkscape:cy="444.05665" inkscape:document-units="px" inkscape:pageopacity="0.0" inkscape:pageshadow="2" inkscape:window-height="488" inkscape:window-maximized="0" inkscape:window-width="591" inkscape:window-x="683" inkscape:window-y="0" inkscape:zoom="0.35" pagecolor="#ffffff" showgrid="false">
	</sodipodi:namedview>
<g id="g4663" transform="matrix(.85307 0 0 .85307 -874.66 -71.543)">
	<path id="path4420" sodipodi:nodetypes="ccccssccc" d="M1223.9,324.8c0,0,0-4.7,2.5-22.1c2.4-17.1,24.8-57.8,25.9-59.2
		c8.6-10.5,13.7-23.4,13.7-37.4c0-35.3-32.5-64-72.6-64s-72.6,28.6-72.6,64c0,14,5.1,26.8,13.7,37.4c1,1.4,23.4,42.1,25.9,59.2
		c2.5,17.5,2.5,22.1,2.5,22.1H1223.9z"/>
	<path d="M1224.2,336.3c0,17-13.8,30.8-30.8,30.8s-30.8-13.8-30.8-30.8H1224.2z"/>
</g>
</svg>
